name analog
datacolumns 19
datarows 28
range 0.312 0.3255
endheader
time	ground_force_vx	ground_force_vy	ground_force_vz	ground_force_px	ground_force_py	ground_force_pz	l_ground_force_vx	l_ground_force_vy	l_ground_force_vz	l_ground_force_px	l_ground_force_py	l_ground_force_pz	ground_torque_x	ground_torque_y	ground_torque_z	l_ground_torque_x	l_ground_torque_y	l_ground_torque_z
0.312	-0.0	-0.0	-0.0	9.798068046569824	-7.681606292724609	-839.2152709960938	-0.0	-0.0	-0.0	-35.09818649291992	16.418479919433594	74.81257629394531	-0.0	-0.0	-0.0	-0.0	-0.0	-0.0
0.3125	-0.0	-0.0	-0.0	9.769323348999023	-7.10175085067749	-836.1565551757812	-0.0	-0.0	-0.0	-34.91934585571289	15.939985275268556	74.8127212524414	-0.0	-0.0	-0.0	-0.0	-0.0	-0.0
0.313	-0.0	-0.0	-0.0	9.649884223937988	-5.584943771362305	-833.504638671875	-0.0	-0.0	-0.0	-34.797027587890625	16.091510772705078	75.86566925048828	-0.0	-0.0	-0.0	-0.0	-0.0	-0.0
0.3135	-0.0	-0.0	-0.0	9.902366638183594	-4.247912406921387	-831.3255004882812	-0.0	-0.0	-0.0	-35.23130416870117	16.04799461364746	75.15393829345703	-0.0	-0.0	-0.0	-0.0	-0.0	-0.0
0.314	-0.0	-0.0	-0.0	9.81529426574707	-2.199973821640014	-827.3969116210938	-0.0	-0.0	-0.0	-34.59245300292969	16.284503936767578	75.9154052734375	-0.0	-0.0	-0.0	-0.0	-0.0	-0.0
0.3145	-0.0	-0.0	-0.0	10.096033096313477	-0.6261717081069946	-824.623779296875	-0.0	-0.0	-0.0	-34.91669464111328	16.166484832763672	75.8056640625	-0.0	-0.0	-0.0	-0.0	-0.0	-0.0
0.315	-0.0	-0.0	-0.0	10.80726718902588	1.955899119377136	-822.0411376953125	-0.0	-0.0	-0.0	-35.203468322753906	16.0766658782959	76.61639404296875	-0.0	-0.0	-0.0	-0.0	-0.0	-0.0
0.3155	-0.0	-0.0	-0.0	10.70526123046875	3.147466897964477	-819.9125366210938	-0.0	-0.0	-0.0	-34.94733047485352	16.092374801635742	76.3862075805664	-0.0	-0.0	-0.0	-0.0	-0.0	-0.0
0.316	-0.0	-0.0	-0.0	11.240524291992188	3.700310707092285	-819.7802734375	-0.0	-0.0	-0.0	-34.91976547241211	16.225675582885742	76.21735382080078	-0.0	-0.0	-0.0	-0.0	-0.0	-0.0
0.3165	-0.0	-0.0	-0.0	10.929800987243652	5.984072208404541	-818.7928466796875	-0.0	-0.0	-0.0	-35.200077056884766	16.23767852783203	76.03484344482422	-0.0	-0.0	-0.0	-0.0	-0.0	-0.0
0.317	-0.0	-0.0	-0.0	11.67116641998291	6.401992321014404	-822.665283203125	-0.0	-0.0	-0.0	-35.11050796508789	16.284503936767578	75.74462890625	-0.0	-0.0	-0.0	-0.0	-0.0	-0.0
0.3175	-0.0	-0.0	-0.0	11.803257942199709	7.099589824676514	-825.3070068359375	-0.0	-0.0	-0.0	-34.62446212768555	16.39014434814453	74.40185546875	-0.0	-0.0	-0.0	-0.0	-0.0	-0.0
0.318	-0.0	-0.0	-0.0	11.702046394348145	7.274174690246582	-825.565185546875	-0.0	-0.0	-0.0	-34.94702911376953	16.507293701171875	76.2791519165039	-0.0	-0.0	-0.0	-0.0	-0.0	-0.0
0.3185	-0.0	-0.0	-0.0	12.016239166259766	7.029640197753906	-827.608154296875	-0.0	-0.0	-0.0	-34.77250671386719	16.253015518188477	75.51612854003906	-0.0	-0.0	-0.0	-0.0	-0.0	-0.0
0.319	-0.0	-0.0	-0.0	13.393060684204102	7.072364330291748	-826.6871948242188	-0.0	-0.0	-0.0	-34.88880157470703	16.210317611694336	76.26131439208984	-0.0	-0.0	-0.0	-0.0	-0.0	-0.0
0.3195	-0.0	-0.0	-0.0	13.172019958496094	7.308692932128906	-828.3753051757812	-0.0	-0.0	-0.0	-34.87308883666992	16.12036895751953	75.4547119140625	-0.0	-0.0	-0.0	-0.0	-0.0	-0.0
0.32	-0.0	-0.0	-0.0	13.145155906677246	8.095274925231934	-825.7347412109375	-0.0	-0.0	-0.0	-34.78865051269531	16.167936325073242	76.3221664428711	-0.0	-0.0	-0.0	-0.0	-0.0	-0.0
0.3205	-0.0	-0.0	-0.0	13.41286277770996	8.567503929138184	-826.97998046875	-0.0	-0.0	-0.0	-35.24135208129883	16.27393913269043	76.61072540283203	-0.0	-0.0	-0.0	-0.0	-0.0	-0.0
0.321	-0.0	-0.0	-0.0	14.31589698791504	8.289127349853516	-827.1474609375	-0.0	-0.0	-0.0	-34.97826385498047	16.15227508544922	74.3398208618164	-0.0	-0.0	-0.0	-0.0	-0.0	-0.0
0.3215	-0.0	-0.0	-0.0	14.404994010925291	8.823909759521484	-827.2095947265625	-0.0	-0.0	-0.0	-35.14133071899414	16.05674171447754	76.1566162109375	-0.0	-0.0	-0.0	-0.0	-0.0	-0.0
0.322	-0.0	-0.0	-0.0	13.958828926086426	10.008830070495604	-824.7374877929688	-0.0	-0.0	-0.0	-34.73164749145508	16.332441329956055	77.4127197265625	-0.0	-0.0	-0.0	-0.0	-0.0	-0.0
0.3225	-0.0	-0.0	-0.0	13.55999755859375	10.082160949707031	-824.9659423828125	-0.0	-0.0	-0.0	-34.831153869628906	16.07257652282715	75.70426940917969	-0.0	-0.0	-0.0	-0.0	-0.0	-0.0
0.323	-0.0	-0.0	-0.0	13.155776977539062	9.53695297241211	-825.00634765625	-0.0	-0.0	-0.0	-34.789588928222656	16.194534301757812	76.1566162109375	-0.0	-0.0	-0.0	-0.0	-0.0	-0.0
0.3235	-0.0	-0.0	-0.0	12.673665046691896	8.451571464538574	-823.262451171875	-0.0	-0.0	-0.0	-34.75782012939453	16.16239356994629	75.22913360595703	-0.0	-0.0	-0.0	-0.0	-0.0	-0.0
0.324	-0.0	-0.0	-0.0	12.652039527893066	6.9937849044799805	-824.0315551757812	-0.0	-0.0	-0.0	-34.457515716552734	15.89243984222412	75.51748657226562	-0.0	-0.0	-0.0	-0.0	-0.0	-0.0
0.3245	-0.0	-0.0	-0.0	13.40722370147705	4.940054416656494	-823.3882446289062	-0.0	-0.0	-0.0	-34.806121826171875	16.056171417236328	77.02070617675781	-0.0	-0.0	-0.0	-0.0	-0.0	-0.0
0.325	-0.0	-0.0	-0.0	14.557241439819336	3.574775457382202	-824.157958984375	-0.0	-0.0	-0.0	-34.88880157470703	16.471487045288086	75.22990417480469	-0.0	-0.0	-0.0	-0.0	-0.0	-0.0
0.3255	-0.0	-0.0	-0.0	15.353665351867676	3.915250301361084	-820.9796142578125	-0.0	-0.0	-0.0	-34.66872787475586	16.11357879638672	75.20207977294922	-0.0	-0.0	-0.0	-0.0	-0.0	-0.0
